# Blender v3.0.0 OBJ File: 'minecraft.blend'
# www.blender.org
mtllib bee.mtl
o Cube.002_Cube.008
v -1.148270 -1.061300 -1.000000
v -1.148270 -1.061300 1.000000
v -1.148270 1.061300 -1.000000
v -1.148270 1.061300 1.000000
v 1.148270 -1.061300 -1.000000
v 1.148270 -1.061300 1.000000
v 1.148270 1.061300 -1.000000
v 1.148270 1.061300 1.000000
v 0.143093 1.239145 1.519833
v 0.168608 1.534271 1.673390
v -0.007608 1.413779 1.577085
v -0.056061 0.812034 1.265240
v 0.289978 0.757057 1.307751
v 0.131729 0.940440 1.367872
v -0.091417 0.510761 1.106596
v 0.254622 0.455784 1.149109
v 0.096373 0.639168 1.209228
v -0.727987 0.915045 1.178706
v -0.392747 0.858616 1.218298
v -0.547777 1.038268 1.277194
v -0.758295 0.612740 1.022525
v -0.420453 0.559066 1.064029
v -0.574954 0.738106 1.122725
v -0.858133 1.398521 1.397362
v -0.520291 1.344846 1.438867
v -0.674792 1.523886 1.497563
v -0.517212 1.344824 1.437523
v -0.181973 1.288395 1.477115
v -0.337003 1.468047 1.536012
v -0.496064 1.634585 1.589077
v -0.466513 1.946483 1.751884
v -0.654369 1.818032 1.649217
v 0.129585 0.935790 1.365098
v 0.159126 1.247579 1.527850
v -0.028664 1.119173 1.425219
v -0.207153 0.985520 1.319730
v -0.362183 1.165172 1.378626
v -0.309009 1.763050 1.691589
v 0.017907 1.708907 1.730642
v -0.132794 1.883541 1.787895
v -0.158308 1.588415 1.634337
v -0.624818 2.129929 1.812025
v -0.812673 2.001478 1.709358
v -0.842224 1.689581 1.546549
v -1.000529 1.873027 1.606690
v -0.702806 1.217919 1.336092
v -0.883017 1.094697 1.237602
v -0.117617 0.200351 0.948427
v -0.091751 0.509688 1.109200
v -0.275899 0.383773 1.008559
v -0.599630 0.434200 0.968282
v -0.268337 0.381566 1.008983
v -0.419843 0.557134 1.066541
v 0.319309 1.359635 1.616138
v 0.066832 0.327378 1.046477
v -0.572957 0.735393 1.119809
v -0.603794 0.433702 0.963829
v -0.703632 1.219482 1.338666
v -0.308209 1.763036 1.691743
v 0.317376 1.064196 1.467731
v -0.026943 1.108744 1.418219
v -0.683919 1.506134 1.486409
v 0.066531 0.326267 1.049068
v -0.448124 0.258631 0.910724
v 0.130682 -1.238659 1.376905
v 0.187369 -1.524703 1.536724
v 0.014256 -1.396717 1.498433
v 0.024327 -0.647722 1.044867
v 0.086555 -0.950091 1.213287
v -0.097931 -0.813697 1.172482
v -0.164220 -0.521068 1.010850
v 0.142523 -0.491486 0.924039
v 0.020264 -0.657462 1.051655
v -0.694654 -0.867665 1.337006
v -0.397845 -0.835955 1.251145
v -0.517615 -0.998553 1.376165
v -0.636505 -0.412217 1.051210
v -0.575752 -0.707422 1.215642
v -0.755867 -0.574260 1.175803
v -0.637327 -1.162479 1.504010
v -0.576574 -1.457685 1.668443
v -0.756689 -1.324522 1.628604
v -0.455058 -1.295950 1.541513
v -0.158250 -1.264240 1.455651
v -0.278020 -1.426838 1.580671
v -0.402424 -1.576432 1.700532
v -0.340175 -1.878905 1.869012
v -0.524725 -1.742465 1.828192
v 0.084086 -0.945467 1.211053
v 0.146314 -1.247835 1.379475
v -0.038172 -1.111442 1.338669
v -0.215517 -0.970754 1.291473
v -0.335288 -1.133352 1.416493
v -0.102171 -1.554776 1.619962
v -0.045483 -1.840820 1.779780
v -0.218597 -1.712833 1.741490
v 0.070943 -1.682762 1.658252
v -0.462476 -2.044938 1.996672
v -0.647024 -1.908497 1.955852
v -0.831574 -1.772056 1.915032
v -0.709273 -1.606023 1.787372
v -0.814424 -1.030264 1.462025
v -0.637385 -1.161152 1.501184
v -0.344521 -0.386062 0.973286
v -0.041331 -0.353800 0.885658
v -0.163614 -0.519810 1.013301
v -0.631603 -0.412768 1.053941
v -0.337931 -0.384447 0.970830
v -0.454979 -0.543349 1.093007
v 0.303795 -1.366646 1.415195
v -0.041963 -0.355092 0.883234
v -0.574884 -0.705067 1.211987
v -0.456390 -0.545379 1.091050
v -0.457212 -1.295642 1.543849
v -0.217874 -1.712873 1.741352
v 0.268572 -1.081860 1.251859
v -0.038479 -1.101642 1.330632
v -0.586973 -1.439991 1.659711
v -0.222238 -0.220053 0.845644
v -0.514555 -0.253865 0.931764
vt 0.821883 0.487952
vt 0.638677 0.319277
vt 0.821883 0.319277
vt 0.638677 0.487952
vt 0.475827 0.319277
vt 0.475827 0.487952
vt 0.333333 0.319277
vt 0.333333 0.487952
vt 0.132316 0.319277
vt 0.333333 0.078313
vt 0.475827 0.078313
vt 0.475827 0.728916
vt 0.129771 0.487952
vt 0.333333 0.728916
vt 0.040712 0.948795
vt 0.040712 0.948795
vt 0.040712 0.948795
vt 0.038168 0.948795
vt 0.040712 0.948795
vt 0.038168 0.948795
vt 0.038168 0.948795
vt 0.040712 0.948795
vt 0.038168 0.948795
vt 0.040712 0.948795
vt 0.040712 0.948795
vt 0.040712 0.948795
vt 0.038168 0.948795
vt 0.040712 0.948795
vt 0.038168 0.948795
vt 0.038168 0.948795
vt 0.040712 0.948795
vt 0.038168 0.948795
vt 0.038168 0.948795
vt 0.040712 0.948795
vt 0.038168 0.948795
vt 0.040712 0.948795
vt 0.040712 0.948795
vt 0.040712 0.948795
vt 0.040712 0.948795
vt 0.038168 0.948795
vt 0.038168 0.948795
vt 0.040712 0.948795
vt 0.040712 0.948795
vt 0.038168 0.948795
vt 0.040712 0.948795
vt 0.038168 0.948795
vt 0.040712 0.948795
vt 0.038168 0.948795
vt 0.038168 0.948795
vt 0.040712 0.948795
vt 0.038168 0.948795
vt 0.038168 0.948795
vt 0.038168 0.948795
vt 0.040712 0.948795
vt 0.038168 0.948795
vt 0.038168 0.948795
vt 0.038168 0.948795
vt 0.040712 0.948795
vt 0.038168 0.948795
vt 0.040712 0.948795
vt 0.040712 0.948795
vt 0.040712 0.948795
vt 0.040712 0.948795
vt 0.040712 0.948795
vt 0.040712 0.948795
vt 0.040712 0.948795
vt 0.040712 0.948795
vt 0.040712 0.948795
vt 0.040712 0.948795
vt 0.040712 0.948795
vt 0.033079 0.957831
vt 0.038168 0.957831
vt 0.038168 0.945783
vt 0.033079 0.957831
vt 0.045802 0.957831
vt 0.045802 0.945783
vt 0.045802 0.957831
vt 0.045802 0.945783
vt 0.033079 0.945783
vt 0.040712 0.957831
vt 0.040712 0.945783
vt 0.033079 0.945783
vt 0.033079 0.957831
vt 0.045802 0.957831
vt 0.045802 0.945783
vt 0.033079 0.957831
vt 0.045802 0.957831
vt 0.045802 0.945783
vt 0.045802 0.957831
vt 0.045802 0.945783
vt 0.040712 0.945783
vt 0.033079 0.951807
vt 0.040712 0.951807
vt 0.040712 0.945783
vt 0.033079 0.957831
vt 0.045802 0.957831
vt 0.045802 0.945783
vt 0.033079 0.957831
vt 0.040712 0.957831
vt 0.040712 0.957831
vt 0.045802 0.957831
vt 0.045802 0.945783
vt 0.040712 0.945783
vt 0.045802 0.951807
vt 0.045802 0.945783
vt 0.045802 0.957831
vt 0.040712 0.957831
vt 0.045802 0.957831
vt 0.045802 0.945783
vt 0.045802 0.957831
vt 0.045802 0.945783
vt 0.033079 0.945783
vt 0.045802 0.957831
vt 0.045802 0.945783
vt 0.033079 0.945783
vt 0.033079 0.945783
vt 0.033079 0.957831
vt 0.033079 0.957831
vt 0.033079 0.945783
vt 0.033079 0.945783
vt 0.033079 0.945783
vt 0.033079 0.945783
vt 0.033079 0.945783
vt 0.033079 0.957831
vt 0.033079 0.957831
vt 0.033079 0.957831
vn -1.0000 0.0000 0.0000
vn 0.0000 1.0000 0.0000
vn 1.0000 0.0000 0.0000
vn 0.0000 -1.0000 0.0000
vn 0.0000 0.0000 -1.0000
vn 0.0000 0.0000 1.0000
vn -0.1782 -0.4420 0.8791
vn 0.1885 0.5066 0.8413
vn 0.1890 0.5072 0.8408
vn 0.1887 0.5075 0.8407
vn 0.1894 0.5078 0.8404
vn 0.1899 0.5066 0.8410
vn 0.1887 0.5068 0.8412
vn 0.1883 0.5077 0.8407
vn 0.1896 0.5069 0.8409
vn 0.1898 0.5067 0.8410
vn 0.1884 0.5077 0.8407
vn 0.1888 0.5069 0.8411
g Cube.002_Cube.008_Bee.001
usemtl Bee.001
s off
f 2/1/1 3/2/1 1/3/1
f 4/4/2 7/5/2 3/2/2
f 8/6/3 5/7/3 7/5/3
f 6/8/4 1/9/4 5/7/4
f 7/5/5 1/10/5 3/11/5
f 4/12/6 6/8/6 8/6/6
f 2/1/1 4/4/1 3/2/1
f 4/4/2 8/6/2 7/5/2
f 8/6/3 6/8/3 5/7/3
f 6/8/4 2/13/4 1/9/4
f 7/5/5 5/7/5 1/10/5
f 4/12/6 2/14/6 6/8/6
s 1
f 9/15/7 10/16/7 11/17/7
f 12/18/7 13/19/7 14/20/7
f 15/21/7 16/22/7 17/23/7
f 18/24/7 19/25/7 20/26/7
f 21/27/7 22/28/7 23/29/7
f 24/30/7 25/31/7 26/32/7
f 27/33/7 28/34/7 29/35/7
f 30/36/7 31/37/7 32/38/7
f 33/39/7 34/40/7 35/41/7
f 36/42/7 28/34/7 37/43/7
f 38/44/7 39/45/7 40/46/7
f 41/47/7 10/16/7 39/45/7
f 32/38/7 42/48/7 43/49/7
f 44/50/7 43/49/7 45/51/7
f 44/50/7 30/36/7 32/38/7
f 18/24/7 46/52/7 47/53/7
f 48/54/7 49/55/7 50/56/7
f 51/57/7 52/58/7 53/59/7
f 9/15/7 54/60/7 10/16/7
f 15/21/7 55/61/7 16/22/7
f 18/24/7 56/62/7 19/25/7
f 21/27/7 57/63/7 22/28/7
f 24/30/7 58/64/7 25/31/7
f 27/33/7 37/43/7 28/34/7
f 30/36/7 59/65/7 31/37/7
f 33/39/7 60/66/7 34/40/7
f 36/42/7 61/67/7 28/34/7
f 38/44/7 41/47/7 39/45/7
f 41/47/7 11/17/7 10/16/7
f 32/38/7 31/37/7 42/48/7
f 44/50/7 32/38/7 43/49/7
f 44/50/7 62/68/7 30/36/7
f 18/24/7 20/26/7 46/52/7
f 48/54/7 63/69/7 49/55/7
f 51/57/7 64/70/7 52/58/7
f 65/71/8 67/72/9 66/73/9
f 68/74/9 70/75/9 69/76/9
f 71/77/10 73/78/9 72/79/10
f 74/80/9 76/81/9 75/82/9
f 77/83/11 79/84/9 78/85/9
f 80/86/9 82/87/10 81/88/9
f 83/89/9 85/90/9 84/91/12
f 86/92/13 88/93/9 87/94/9
f 89/95/8 91/96/9 90/97/9
f 92/98/9 93/99/9 84/91/12
f 94/100/9 96/101/9 95/102/9
f 67/72/9 94/100/9 97/103/9
f 88/93/9 99/104/9 98/105/9
f 100/106/14 99/104/9 88/93/9
f 101/107/12 88/93/9 86/92/13
f 102/108/9 103/109/9 76/81/9
f 104/110/9 106/111/9 105/112/15
f 107/113/9 109/114/9 108/115/16
f 65/71/8 66/73/9 110/116/17
f 71/77/10 72/79/10 111/117/9
f 74/80/9 75/82/9 112/118/18
f 77/83/11 78/85/9 113/119/9
f 80/86/9 81/88/9 114/120/9
f 83/89/9 84/91/12 93/99/9
f 86/92/13 87/94/9 115/121/9
f 89/95/8 90/97/9 116/122/9
f 92/98/9 84/91/12 117/123/9
f 94/100/9 95/102/9 97/103/9
f 67/72/9 97/103/9 66/73/9
f 88/93/9 98/105/9 87/94/9
f 100/106/14 88/93/9 101/107/12
f 101/107/12 86/92/13 118/124/8
f 102/108/9 76/81/9 74/80/9
f 104/110/9 105/112/15 119/125/9
f 107/113/9 108/115/16 120/126/9
